<svg xmlns="http://www.w3.org/2000/svg" xmlns:xlink="http://www.w3.org/1999/xlink" width="1920" zoomAndPan="magnify" viewBox="0 0 1440 809.999993" height="1080" preserveAspectRatio="xMidYMid meet" version="1.2"><defs/><g id="fc7fc7db4d"><g style="fill:#af4c0f;fill-opacity:1;"><g transform="translate(81.000002, 354.678093)"><path style="stroke:none" d="M 99.421875 0 L 94.03125 -18.03125 L 49.25 -18.03125 L 43.859375 0 L 1.859375 0 L 48.5 -127.84375 L 96.265625 -127.84375 L 142.90625 0 Z M 57.796875 -46.640625 L 85.484375 -46.640625 L 72.09375 -92.171875 L 71.359375 -92.171875 Z M 57.796875 -46.640625 "/></g></g><g style="fill:#cf7f4e;fill-opacity:1;"><g transform="translate(225.592728, 354.678093)"><path style="stroke:none" d="M 98.859375 -127.84375 C 105.304688 -127.84375 111.222656 -126.507812 116.609375 -123.84375 C 121.992188 -121.1875 126.265625 -117.441406 129.421875 -112.609375 C 132.585938 -107.773438 134.171875 -102.382812 134.171875 -96.4375 C 134.171875 -80.707031 127.046875 -70.800781 112.796875 -66.71875 L 112.796875 -65.96875 C 129.023438 -62.25 137.140625 -51.59375 137.140625 -34 C 137.140625 -27.3125 135.5 -21.394531 132.21875 -16.25 C 128.9375 -11.113281 124.445312 -7.117188 118.75 -4.265625 C 113.050781 -1.421875 106.789062 0 99.96875 0 L 13.75 0 L 13.75 -127.84375 Z M 54.8125 -78.046875 L 83.0625 -78.046875 C 85.789062 -78.046875 88.050781 -79.003906 89.84375 -80.921875 C 91.644531 -82.847656 92.546875 -85.234375 92.546875 -88.078125 L 92.546875 -89.9375 C 92.546875 -92.664062 91.613281 -94.988281 89.75 -96.90625 C 87.894531 -98.832031 85.664062 -99.796875 83.0625 -99.796875 L 54.8125 -99.796875 Z M 54.8125 -29.734375 L 86.03125 -29.734375 C 88.757812 -29.734375 91.019531 -30.691406 92.8125 -32.609375 C 94.613281 -34.535156 95.515625 -36.921875 95.515625 -39.765625 L 95.515625 -41.625 C 95.515625 -44.476562 94.613281 -46.863281 92.8125 -48.78125 C 91.019531 -50.695312 88.757812 -51.65625 86.03125 -51.65625 L 54.8125 -51.65625 Z M 54.8125 -29.734375 "/></g></g><g style="fill:#cf7f4e;fill-opacity:1;"><g transform="translate(370.169308, 354.678093)"><path style="stroke:none" d="M 69.125 -127.84375 C 113.851562 -127.84375 136.21875 -106.535156 136.21875 -63.921875 C 136.21875 -21.304688 113.851562 0 69.125 0 L 13.75 0 L 13.75 -127.84375 Z M 54.8125 -30.65625 L 68.390625 -30.65625 C 85.609375 -30.65625 94.21875 -39.882812 94.21875 -58.34375 L 94.21875 -69.5 C 94.21875 -87.957031 85.609375 -97.1875 68.390625 -97.1875 L 54.8125 -97.1875 Z M 54.8125 -30.65625 "/></g></g><g style="fill:#cf7f4e;fill-opacity:1;"><g transform="translate(514.745889, 354.678093)"><path style="stroke:none" d="M 13.75 -127.84375 L 124.3125 -127.84375 L 124.3125 -97.1875 L 54.8125 -97.1875 L 54.8125 -79.53125 L 114.28125 -79.53125 L 114.28125 -50.171875 L 54.8125 -50.171875 L 54.8125 -30.65625 L 125.625 -30.65625 L 125.625 0 L 13.75 0 Z M 13.75 -127.84375 "/></g></g><g style="fill:#cf7f4e;fill-opacity:1;"><g transform="translate(648.915921, 354.678093)"><path style="stroke:none" d="M 13.75 -127.84375 L 54.8125 -127.84375 L 54.8125 -32.703125 L 120.421875 -32.703125 L 120.421875 0 L 13.75 0 Z M 13.75 -127.84375 "/></g></g><g style="fill:#cf7f4e;fill-opacity:1;"><g transform="translate(772.865284, 354.678093)"><path style="stroke:none" d="M 13.75 -127.84375 L 54.8125 -127.84375 L 54.8125 -32.703125 L 120.421875 -32.703125 L 120.421875 0 L 13.75 0 Z M 13.75 -127.84375 "/></g></g><g style="fill:#cf7f4e;fill-opacity:1;"><g transform="translate(896.814647, 354.678093)"><path style="stroke:none" d="M 99.421875 0 L 94.03125 -18.03125 L 49.25 -18.03125 L 43.859375 0 L 1.859375 0 L 48.5 -127.84375 L 96.265625 -127.84375 L 142.90625 0 Z M 57.796875 -46.640625 L 85.484375 -46.640625 L 72.09375 -92.171875 L 71.359375 -92.171875 Z M 57.796875 -46.640625 "/></g></g><g style="fill:#cf7f4e;fill-opacity:1;"><g transform="translate(1028.568736, 354.678093)"><path style="stroke:none" d="M 87.34375 -95.140625 L 87.34375 0 L 46.265625 0 L 46.265625 -95.140625 L 4.28125 -95.140625 L 4.28125 -127.84375 L 129.15625 -127.84375 L 129.15625 -95.140625 Z M 87.34375 -95.140625 "/></g></g><g style="fill:#cf7f4e;fill-opacity:1;"><g transform="translate(1162.738728, 354.678093)"><path style="stroke:none" d="M 15.609375 0 L 15.609375 -127.84375 L 56.671875 -127.84375 L 56.671875 0 Z M 15.609375 0 "/></g></g><g style="fill:#cf7f4e;fill-opacity:1;"><g transform="translate(1235.027008, 354.678093)"><path style="stroke:none" d="M 13.75 -127.84375 L 117.078125 -127.84375 L 117.078125 -97.1875 L 54.8125 -97.1875 L 54.8125 -75.265625 L 108.34375 -75.265625 L 108.34375 -45.90625 L 54.8125 -45.90625 L 54.8125 0 L 13.75 0 Z M 13.75 -127.84375 "/></g></g><g style="fill:#af4c0f;fill-opacity:1;"><g transform="translate(369.777117, 577.109405)"><path style="stroke:none" d="M 15.578125 0 L 15.578125 -127.546875 L 56.546875 -127.546875 L 56.546875 0 Z M 15.578125 0 "/></g></g><g style="fill:#cf7f4e;fill-opacity:1;"><g transform="translate(441.907948, 577.109405)"><path style="stroke:none" d="M 67.484375 -30.59375 L 128.109375 -30.59375 L 128.109375 0 L 4.453125 0 L 4.453125 -13.15625 L 63.59375 -96.953125 L 8.90625 -96.953125 L 8.90625 -127.546875 L 126.625 -127.546875 L 126.625 -114.390625 Z M 67.484375 -30.59375 "/></g></g><g style="fill:#cf7f4e;fill-opacity:1;"><g transform="translate(575.764332, 577.109405)"><path style="stroke:none" d="M 13.71875 -127.546875 L 124.03125 -127.546875 L 124.03125 -96.953125 L 54.6875 -96.953125 L 54.6875 -79.34375 L 114.015625 -79.34375 L 114.015625 -50.0625 L 54.6875 -50.0625 L 54.6875 -30.59375 L 125.328125 -30.59375 L 125.328125 0 L 13.71875 0 Z M 13.71875 -127.546875 "/></g></g><g style="fill:#cf7f4e;fill-opacity:1;"><g transform="translate(709.620717, 577.109405)"><path style="stroke:none" d="M 134.78125 -88.4375 C 134.78125 -80.644531 132.675781 -73.597656 128.46875 -67.296875 C 124.269531 -60.992188 118.15625 -56.359375 110.125 -53.390625 L 138.484375 0 L 92.515625 0 L 69.890625 -46.53125 L 54.6875 -46.53125 L 54.6875 0 L 13.71875 0 L 13.71875 -127.546875 L 91.765625 -127.546875 C 100.910156 -127.546875 108.726562 -125.785156 115.21875 -122.265625 C 121.707031 -118.742188 126.585938 -113.984375 129.859375 -107.984375 C 133.140625 -101.992188 134.78125 -95.476562 134.78125 -88.4375 Z M 93.0625 -86.765625 C 93.0625 -90.097656 91.945312 -92.875 89.71875 -95.09375 C 87.5 -97.320312 84.785156 -98.4375 81.578125 -98.4375 L 54.6875 -98.4375 L 54.6875 -74.890625 L 81.578125 -74.890625 C 84.785156 -74.890625 87.5 -76.03125 89.71875 -78.3125 C 91.945312 -80.601562 93.0625 -83.421875 93.0625 -86.765625 Z M 93.0625 -86.765625 "/></g></g><g style="fill:#cf7f4e;fill-opacity:1;"><g transform="translate(853.859301, 577.109405)"><path style="stroke:none" d="M 15.578125 0 L 15.578125 -127.546875 L 56.546875 -127.546875 L 56.546875 0 Z M 15.578125 0 "/></g></g><g style="fill:#cf7f4e;fill-opacity:1;"><g transform="translate(925.978613, 577.109405)"><path style="stroke:none" d="M 99.1875 0 L 93.8125 -17.984375 L 49.125 -17.984375 L 43.75 0 L 1.859375 0 L 48.390625 -127.546875 L 96.03125 -127.546875 L 142.5625 0 Z M 57.65625 -46.53125 L 85.28125 -46.53125 L 71.9375 -91.953125 L 71.1875 -91.953125 Z M 57.65625 -46.53125 "/></g></g></g></svg>